<svg width="89" height="24" viewBox="0 0 89 24" fill="none" xmlns="http://www.w3.org/2000/svg">
<path d="M0.705108 3.52115C0.705108 4.90599 1.81453 6.02453 3.18809 6.02453H10.8131C12.2219 6.02453 13.349 7.21407 13.2785 8.65219C13.2081 9.98378 12.0635 11.0136 10.7427 11.0136H9.26349C6.34025 11.0136 4.94908 14.6532 7.11509 16.624L14.4584 23.3529C15.4798 24.2762 17.047 24.2052 17.9628 23.1755C18.8784 22.1456 18.808 20.5655 17.7866 19.6422L13.3314 15.5587C16.1841 14.5112 18.2268 11.7592 18.2444 8.52792C18.262 4.39112 14.7754 1 10.6547 1H0.6875V3.52115" fill="#008DB9"/>
<path d="M3.42793 24C4.94143 24 6.16836 22.7643 6.16836 21.24C6.16836 19.7156 4.94143 18.48 3.42793 18.48C1.91444 18.48 0.6875 19.7156 0.6875 21.24C0.6875 22.7643 1.91444 24 3.42793 24Z" fill="#008DB9"/>
<path d="M13.3509 15.5731L17.8095 19.6495C18.8317 20.5712 18.9022 22.1664 17.9857 23.1766C17.0693 24.2046 15.4833 24.2755 14.4787 23.3539L11.8176 20.9257C9.89672 19.1711 10.8131 15.9984 13.3509 15.5731Z" fill="#075480"/>
<path d="M23.771 21.6042C23.771 22.9273 24.8436 24 26.1668 24C27.49 24 28.5627 22.9273 28.5627 21.6042L28.5627 0.999986L26.531 0.999985C25.0067 0.999985 23.771 2.23568 23.771 3.75999L23.771 21.6042Z" fill="#075480"/>
<path d="M35.3732 1.46523C35.6046 1.29495 35.8677 1.16527 36.1521 1.08669C36.4363 1.00781 36.7286 0.983641 37.0146 1.01059C37.3603 1.04248 37.6846 1.1478 37.972 1.3108C38.2597 1.4733 38.517 1.69723 38.7223 1.97721C38.7751 2.04891 38.824 2.12367 38.8687 2.20115L45.4167 13.1145L51.9647 2.20127C52.0096 2.12339 52.0587 2.04827 52.1118 1.97623C52.3168 1.69691 52.5737 1.47342 52.8608 1.31115C53.4073 1.00227 54.0637 0.915139 54.6818 1.08681C54.9657 1.16533 55.2285 1.29482 55.4596 1.4648C55.741 1.67088 55.9659 1.92949 56.1287 2.21872C56.3382 2.59074 56.445 3.01343 56.4375 3.44016V24.0004H55.4792C53.3621 24.0004 51.6459 22.2841 51.6459 20.167V12.0459L47.8656 18.3464C46.7564 20.1951 44.0771 20.1951 42.9679 18.3464L39.1875 12.0459V20.167C39.1875 22.2841 37.4713 24.0004 35.3542 24.0004H34.3959V3.4401C34.3943 3.35086 34.3978 3.26179 34.4061 3.17332C34.438 2.82755 34.5434 2.50306 34.7065 2.21562C34.869 1.92784 35.0931 1.6705 35.3732 1.46523Z" fill="#075480"/>
<path fill-rule="evenodd" clip-rule="evenodd" d="M67.9 1H69.28H70.2H77.56V2.84C77.56 4.36431 76.3243 5.6 74.8 5.6H70.2H69.28H67.9C66.6297 5.6 65.6 6.62975 65.6 7.9C65.6 9.17025 66.6297 10.2 67.9 10.2H72.4999C74.5435 10.2 76.3795 11.0884 77.643 12.5C76.5572 13.7131 75.0486 14.5398 73.3488 14.7483C75.0486 14.5398 76.5573 13.7131 77.643 12.5C78.7356 13.7207 79.4 15.3328 79.4 17.1C79.4 20.9108 76.3108 24 72.5 24H71.12H70.2H61.92V22.16C61.92 20.6357 63.1557 19.4 64.68 19.4H70.2H71.12H72.5C73.7703 19.4 74.8 18.3703 74.8 17.1C74.8 15.8297 73.7703 14.8 72.5 14.8C72.5 14.8 72.5 14.8 72.4999 14.8H67.8999C65.8581 14.8 64.0234 13.9131 62.7601 12.5036H62.7537L62.7569 12.5C62.7569 12.5 62.7569 12.5 62.7569 12.5C62.7569 12.5 62.7569 12.5 62.7569 12.5C61.6644 11.2792 61 9.6672 61 7.9C61 4.08924 64.0892 1 67.9 1ZM77.643 12.5L77.6403 12.497H77.6458L77.643 12.5Z" fill="#075480"/>
<path d="M81.6815 10V8.5378C81.6815 8.2432 81.8114 7.96359 82.0366 7.77358L85.2887 5.0289C85.528 4.82659 85.7326 4.63712 85.9025 4.4605C86.0757 4.28067 86.2079 4.09602 86.2991 3.90655C86.3936 3.71708 86.4408 3.50674 86.4408 3.27553C86.4408 3.02184 86.3873 2.80507 86.2803 2.62524C86.1764 2.44541 86.0316 2.30732 85.8459 2.21098C85.6602 2.11143 85.4461 2.06166 85.2038 2.06166C84.9614 2.06166 84.7473 2.11143 84.5616 2.21098C84.3791 2.31053 84.2374 2.45665 84.1367 2.64933C84.036 2.842 83.9856 3.07643 83.9856 3.3526H81.4927C81.4927 2.65896 81.6453 2.06166 81.9507 1.56069C82.256 1.05973 82.6872 0.674374 83.2443 0.404625C83.8015 0.134875 84.4546 0 85.2038 0C85.9781 0 86.6485 0.126847 87.2151 0.38054C87.7848 0.631022 88.2239 0.984265 88.5324 1.44027C88.844 1.89628 88.9998 2.43096 88.9998 3.04432C88.9998 3.42325 88.9227 3.80058 88.7685 4.1763C88.6142 4.54881 88.3372 4.96146 87.9375 5.41426C87.5377 5.86705 86.9696 6.40655 86.233 7.03276L85.3265 7.80347V7.86127H88.9927V10H81.6815Z" fill="#075480"/>
</svg>
